<svg width="24" height="24" viewBox="0 0 24 24" fill="none" xmlns="http://www.w3.org/2000/svg">
<path d="M11.4918 1.47477C10.9461 1.47948 10.4591 1.78622 10.2371 2.28395L4.75628 14.0651C4.52374 14.5734 4.60383 15.151 4.96981 15.5699C5.3305 15.9941 5.88694 16.1589 6.42183 16.0058L10.4838 14.8183C10.7274 14.7444 10.8914 14.5273 10.8911 14.2731L10.9008 13.4149L10.948 8.14913C10.9583 7.84188 11.207 7.59316 11.5196 7.5988C11.8268 7.59913 12.0814 7.85368 12.0765 8.16623L12.0239 13.4902L12.0194 14.2054C12.0144 14.465 12.1895 14.693 12.4385 14.7621L16.7202 15.9322C17.2077 16.0493 17.6949 15.9121 18.0389 15.5681C18.076 15.531 18.1077 15.4993 18.1395 15.4569C18.4833 15.0388 18.5463 14.4667 18.318 13.9738L12.7694 2.27608C12.5304 1.78315 12.0427 1.47537 11.4918 1.47477Z" fill="#5A5A5A"/>
</svg>
