<svg width="36" height="36" viewBox="0 0 36 36" fill="none" xmlns="http://www.w3.org/2000/svg">
<path d="M31.0625 12.4605H29.4375V8.98684C29.4375 8.44737 29.0125 8 28.5 8C27.9875 8 27.5625 8.44737 27.5625 8.98684V12.4474H25.9375C25.425 12.4474 25 12.8947 25 13.4342V21.2237C25 21.7632 25.425 22.2105 25.9375 22.2105H27.5625V24.0132C27.5625 24.5526 27.9875 25 28.5 25C29.0125 25 29.4375 24.5526 29.4375 24.0132V22.2105H31.0625C31.575 22.2105 32 21.7632 32 21.2237V13.4474C32 12.8947 31.575 12.4605 31.0625 12.4605Z" fill="#2020C1"/>
<path d="M21.9214 13.9519H20.1V9.96717C20.1 9.43845 19.6046 9 19.0071 9C18.4097 9 17.9143 9.43845 17.9143 9.96717V13.939H16.0929C15.4954 13.939 15 14.3775 15 14.9062V27.3118C15 27.8406 15.4954 28.279 16.0929 28.279H17.8997V30.0328C17.8997 30.5615 18.3951 31 18.9925 31C19.59 31 20.0854 30.5615 20.0854 30.0328V28.279H21.9068C22.5043 28.279 22.9997 27.8406 22.9997 27.3118V14.9191C23.0142 14.3775 22.5334 13.9519 21.9214 13.9519Z" fill="#FFE03E"/>
<path d="M12.0625 7.66646H10.4375V5.99495C10.4375 5.45104 10.0125 5 9.49998 5C8.98748 5 8.56248 5.45104 8.56248 5.99495V7.66646H6.9375C6.425 7.66646 6 8.10423 6 8.6614V21.1845C6 21.7284 6.425 22.1794 6.9375 22.1794H8.56248V25.0051C8.56248 25.549 8.98748 26 9.49998 26C10.0125 26 10.4375 25.549 10.4375 25.0051V22.1794H12.0625C12.575 22.1794 13 21.7284 13 21.1845V8.6614C13 8.10423 12.575 7.66646 12.0625 7.66646Z" fill="#2020C1"/>
</svg>
