<svg width="36" height="36" viewBox="0 0 36 36" fill="none" xmlns="http://www.w3.org/2000/svg">
<path d="M27.214 6.45601C26.754 5.99363 26.207 5.62693 25.6046 5.37703C25.0021 5.12713 24.3562 4.99899 23.704 5.00002H13.005C12.3494 4.99831 11.7 5.12575 11.0936 5.37504C10.4873 5.62434 9.93607 5.99061 9.47131 6.45295C9.00655 6.9153 8.63741 7.46466 8.38496 8.06966C8.13252 8.67466 8.0017 9.32343 8 9.97899V26.008C8 26.6646 8.12955 27.3148 8.38123 27.9213C8.63292 28.5278 9.00179 29.0788 9.46671 29.5425C9.93164 30.0062 10.4835 30.3736 11.0906 30.6237C11.6978 30.8738 12.3483 31.0017 13.005 31H23.704C25.0234 30.9966 26.2879 30.4709 27.2209 29.5379C28.1539 28.6049 28.6795 27.3405 28.683 26.021V9.97899C28.6833 9.32379 28.5536 8.67507 28.3015 8.07033C28.0493 7.4656 27.6797 6.91688 27.214 6.45601Z" fill="#2020C1"/>
<path d="M13.1999 19.9249C13.457 19.9249 13.7084 19.8487 13.9221 19.7059C14.1359 19.563 14.3025 19.36 14.4009 19.1224C14.4993 18.8849 14.5251 18.6235 14.4749 18.3713C14.4248 18.1191 14.3009 17.8875 14.1191 17.7057C13.9373 17.5239 13.7057 17.4001 13.4535 17.3499C13.2013 17.2998 12.94 17.3255 12.7024 17.4239C12.4649 17.5223 12.2618 17.6889 12.119 17.9027C11.9761 18.1165 11.8999 18.3678 11.8999 18.6249C11.8999 18.9697 12.0369 19.3004 12.2807 19.5442C12.5245 19.788 12.8551 19.9249 13.1999 19.9249Z" fill="#FFE03E"/>
<path d="M18.4001 19.9501C18.6572 19.9501 18.9086 19.8739 19.1223 19.731C19.3361 19.5882 19.5027 19.3851 19.6011 19.1476C19.6995 18.91 19.7253 18.6486 19.6751 18.3965C19.625 18.1443 19.5011 17.9127 19.3193 17.7309C19.1375 17.5491 18.9059 17.4252 18.6537 17.3751C18.4015 17.3249 18.1402 17.3506 17.9026 17.449C17.6651 17.5474 17.462 17.7141 17.3192 17.9278C17.1763 18.1416 17.1001 18.393 17.1001 18.6501C17.1001 18.9949 17.2371 19.3255 17.4809 19.5693C17.7247 19.8131 18.0553 19.9501 18.4001 19.9501Z" fill="#FFE03E"/>
<path d="M23.6989 19.9501C23.9561 19.9501 24.2074 19.8739 24.4212 19.731C24.635 19.5882 24.8016 19.3851 24.9 19.1476C24.9984 18.91 25.0241 18.6486 24.974 18.3965C24.9238 18.1443 24.8 17.9127 24.6182 17.7309C24.4364 17.5491 24.2047 17.4252 23.9526 17.3751C23.7004 17.3249 23.439 17.3506 23.2014 17.449C22.9639 17.5474 22.7609 17.7141 22.618 17.9278C22.4752 18.1416 22.3989 18.393 22.3989 18.6501C22.3989 18.9949 22.5359 19.3255 22.7797 19.5693C23.0235 19.8131 23.3542 19.9501 23.6989 19.9501Z" fill="#FFE03E"/>
<path d="M13.1999 26.6969C13.457 26.6969 13.7084 26.6207 13.9221 26.4778C14.1359 26.335 14.3025 26.132 14.4009 25.8944C14.4993 25.6569 14.5251 25.3955 14.4749 25.1433C14.4248 24.8911 14.3009 24.6595 14.1191 24.4777C13.9373 24.2958 13.7057 24.1721 13.4535 24.1219C13.2013 24.0717 12.94 24.0975 12.7024 24.1959C12.4649 24.2943 12.2618 24.4609 12.119 24.6747C11.9761 24.8885 11.8999 25.1398 11.8999 25.3969C11.8999 25.7417 12.0369 26.0723 12.2807 26.3161C12.5245 26.5599 12.8551 26.6969 13.1999 26.6969Z" fill="#FFE03E"/>
<path d="M18.4001 26.6969C18.6572 26.6969 18.9086 26.6207 19.1223 26.4778C19.3361 26.335 19.5027 26.132 19.6011 25.8944C19.6995 25.6569 19.7253 25.3955 19.6751 25.1433C19.625 24.8911 19.5011 24.6595 19.3193 24.4777C19.1375 24.2958 18.9059 24.1721 18.6537 24.1219C18.4015 24.0717 18.1402 24.0975 17.9026 24.1959C17.6651 24.2943 17.462 24.4609 17.3192 24.6747C17.1763 24.8885 17.1001 25.1398 17.1001 25.3969C17.1001 25.7417 17.2371 26.0723 17.4809 26.3161C17.7247 26.5599 18.0553 26.6969 18.4001 26.6969Z" fill="#FFE03E"/>
<path d="M23.6 26.6969C23.8572 26.6969 24.1085 26.6207 24.3223 26.4778C24.5361 26.335 24.7027 26.132 24.8011 25.8944C24.8995 25.6569 24.9252 25.3955 24.8751 25.1433C24.8249 24.8911 24.7011 24.6595 24.5193 24.4777C24.3375 24.2958 24.1058 24.1721 23.8537 24.1219C23.6015 24.0717 23.3401 24.0975 23.1026 24.1959C22.865 24.2943 22.662 24.4609 22.5191 24.6747C22.3763 24.8885 22.3 25.1398 22.3 25.3969C22.3 25.7417 22.437 26.0723 22.6808 26.3161C22.9246 26.5599 23.2553 26.6969 23.6 26.6969Z" fill="#FFE03E"/>
<path d="M22.8849 9.95312H13.9149C12.802 9.95312 11.8999 10.8553 11.8999 11.9681C11.8999 13.081 12.802 13.9831 13.9149 13.9831H22.8849C23.9977 13.9831 24.8999 13.081 24.8999 11.9681C24.8999 10.8553 23.9977 9.95312 22.8849 9.95312Z" fill="white"/>
</svg>
