<svg width="36" height="36" viewBox="0 0 36 36" fill="none" xmlns="http://www.w3.org/2000/svg">
<path d="M5 4.18736C5 3.82837 5.29102 3.53735 5.65 3.53735H26.125C27.561 3.53735 28.725 4.70141 28.725 6.13736V27.9124C28.725 29.3483 27.561 30.5124 26.125 30.5124H5.65C5.29101 30.5124 5 30.2214 5 29.8624V4.18736Z" fill="#2020C1"/>
<path d="M7.2749 6.13755C7.2749 5.77857 7.56592 5.48755 7.9249 5.48755H28.3999C29.8359 5.48755 30.9999 6.65161 30.9999 8.08755V29.8626C30.9999 31.2985 29.8359 32.4626 28.3999 32.4626H7.9249C7.56592 32.4626 7.2749 32.1716 7.2749 31.8126V6.13755Z" fill="#FFE03E"/>
<path d="M27.5044 22.662L24.0201 20.4618C23.355 20.0418 22.5124 20.6298 22.6772 21.399L23.4292 24.9083C23.5629 25.5322 24.3064 25.8116 24.6717 25.2883C24.7514 25.1742 24.8198 25.0599 24.8782 24.946C25.2347 24.2521 26.2114 23.722 26.9748 23.883C27.1423 23.9184 27.294 23.9303 27.4328 23.9244C28.0713 23.8975 28.0448 23.0032 27.5044 22.662Z" fill="#FAFAFF"/>
<path fill-rule="evenodd" clip-rule="evenodd" d="M13.8249 14.0331C13.2863 13.693 12.5696 13.9558 12.4786 14.5863C12.0614 17.4771 13.3311 20.4772 15.9602 22.1374C18.5894 23.7976 21.844 23.6544 24.2747 22.035C24.8049 21.6818 24.7341 20.9218 24.1954 20.5817L13.8249 14.0331Z" fill="#FAFAFF"/>
<ellipse cx="15.0527" cy="17.335" rx="0.375817" ry="0.384358" transform="rotate(32.2706 15.0527 17.335)" fill="#FFE03E"/>
</svg>
