<svg width="28" height="28" viewBox="0 0 28 28" fill="none" xmlns="http://www.w3.org/2000/svg">
<path d="M17.4179 6.06524L17.5201 6.04116C17.7271 5.99106 17.9087 5.86719 18.0309 5.69277C18.1531 5.51835 18.2075 5.30535 18.1839 5.0937L18.0734 4.06496C18.0732 3.94029 18.0467 3.81706 17.9956 3.70332C17.9446 3.58958 17.8701 3.48788 17.7771 3.40487C17.6841 3.32186 17.5746 3.2594 17.4558 3.22156C17.337 3.18373 17.2115 3.17137 17.0877 3.1853C16.9638 3.19923 16.8442 3.23913 16.7368 3.30239C16.6293 3.36566 16.5365 3.45087 16.4642 3.55246C16.3919 3.65406 16.3419 3.76975 16.3174 3.89199C16.2928 4.01422 16.2944 4.14026 16.3219 4.26187L16.4437 5.28793C16.4559 5.40326 16.4908 5.51503 16.5465 5.61674C16.6022 5.71845 16.6776 5.80808 16.7682 5.88041C16.8589 5.95273 16.963 6.00632 17.0745 6.03805C17.1861 6.06978 17.3028 6.07902 17.4179 6.06524Z" fill="#FF5D5D"/>
<path d="M20.8717 15.0269C19.9528 14.2359 18.7701 13.8195 17.5584 13.8602C17.4724 12.5429 16.9421 11.2936 16.0542 10.3167C15.1662 9.33979 13.9732 8.69294 12.67 8.48188C11.7687 8.31582 10.8423 8.34443 9.95289 8.56577C9.06351 8.7871 8.23174 9.19606 7.51337 9.76521C6.8431 10.3192 6.30322 11.0142 5.93218 11.8006C5.56114 12.5871 5.36806 13.4456 5.3667 14.3152C4.27243 14.8739 3.3933 15.7784 2.86588 16.8881C2.33846 17.9978 2.19227 19.2506 2.45003 20.4519C2.60777 21.2164 2.92658 21.9385 3.38524 22.5702C3.8439 23.2019 4.43189 23.7286 5.11003 24.1152C5.82605 24.5063 6.62752 24.7147 7.44337 24.7219H7.79337H18.1067C20.79 24.7219 22.7734 21.8635 22.7734 19.3202C22.7507 17.8492 22.1663 16.4426 21.14 15.3885C21.0576 15.2629 20.968 15.1422 20.8717 15.0269Z" fill="#D7D7D7"/>
<path fill-rule="evenodd" clip-rule="evenodd" d="M23.1646 15.9999C23.8395 15.0659 24.2373 13.9184 24.2373 12.678C24.2373 9.54213 21.6952 7 18.5593 7C17.2117 7 15.9737 7.46948 15 8.25382C15.8994 8.55048 16.7123 9.07532 17.3559 9.78339C18.1962 10.7079 18.698 11.8901 18.7794 13.1367C19.9261 13.0982 21.0453 13.4923 21.9149 14.2408C22.006 14.3499 22.0908 14.4642 22.1688 14.583C22.5777 15.003 22.9125 15.4821 23.1646 15.9999Z" fill="#FF5D5D"/>
<path d="M22.7277 6.58036C22.8408 6.54611 22.9461 6.48987 23.0374 6.41487C23.1287 6.33988 23.2044 6.24759 23.26 6.14331L23.8069 5.25935C23.9287 5.06208 23.9673 4.82451 23.9141 4.59881C23.861 4.37312 23.7204 4.17775 23.5233 4.05564C23.326 3.93377 23.0884 3.89518 22.8627 3.94836C22.637 4.00153 22.4417 4.14211 22.3196 4.33923L21.7887 5.29133C21.6669 5.48859 21.6283 5.72617 21.6815 5.95186C21.7346 6.17756 21.8752 6.37292 22.0723 6.49504C22.2727 6.60352 22.5062 6.63391 22.7277 6.58036Z" fill="#FF5D5D"/>
<path d="M27.6096 8.2361C27.5042 8.03059 27.3228 7.87431 27.1039 7.80051C26.8851 7.72672 26.6461 7.74123 26.4377 7.84096L25.506 8.31219C25.3132 8.40831 25.1627 8.57217 25.0832 8.77238C25.0037 8.97258 25.0009 9.19507 25.0752 9.39724C25.1496 9.59941 25.2959 9.76705 25.4861 9.86806C25.6764 9.96907 25.8972 9.99635 26.1063 9.94468L26.2994 9.8992L27.2198 9.43065C27.3262 9.38048 27.4213 9.30909 27.4992 9.22084C27.577 9.1326 27.636 9.02937 27.6725 8.9175C27.709 8.80563 27.7223 8.68748 27.7114 8.5703C27.7006 8.45312 27.666 8.33939 27.6096 8.2361Z" fill="#FF5D5D"/>
</svg>
