<svg width="28" height="28" viewBox="0 0 28 28" fill="none" xmlns="http://www.w3.org/2000/svg">
<path d="M23.0067 13.7315C22.8314 13.5227 22.6402 13.3277 22.435 13.1482C21.4238 12.293 20.1149 11.8735 18.795 11.9815C18.751 10.9819 18.4672 10.0075 17.9677 9.14053C17.4683 8.27355 16.7677 7.53934 15.925 6.99982C15.4183 6.6652 14.8636 6.40951 14.28 6.24148C13.6156 6.03268 12.9232 5.92646 12.2267 5.92648H12.0867C11.2411 5.91386 10.4016 6.0713 9.61803 6.38944C8.83447 6.70759 8.12284 7.17995 7.52539 7.77849C6.92794 8.37702 6.45687 9.08952 6.14015 9.87366C5.82343 10.6578 5.66753 11.4976 5.68169 12.3432C4.4799 12.9295 3.51014 13.9029 2.92826 15.1069C2.34638 16.3108 2.18616 17.6755 2.47336 18.9815C2.63776 19.8028 2.97711 20.579 3.46832 21.2575C3.95953 21.9359 4.59108 22.5006 5.32002 22.9132C6.09423 23.345 6.96519 23.5738 7.85169 23.5781H8.24836H19.4834C22.3767 23.5781 24.535 20.5098 24.535 17.7448C24.5441 16.853 24.3485 15.9709 23.9634 15.1665C23.7147 14.6449 23.3925 14.1616 23.0067 13.7315Z" fill="#BCBCBC"/>
<path d="M24.2667 8.87818C23.6774 8.37771 22.939 8.08644 22.1667 8.04985C22.0249 7.00995 21.4977 6.06122 20.6897 5.39145C19.8816 4.72168 18.8516 4.37969 17.8034 4.43318C16.8526 4.44066 15.9289 4.75128 15.1667 5.31985C16.3432 5.76047 17.3885 6.49258 18.2048 7.44756C19.021 8.40254 19.5814 9.54912 19.8334 10.7798C21.077 10.929 22.2495 11.4402 23.2051 12.2498C23.3926 12.4117 23.5717 12.583 23.7417 12.7632C24.196 13.2408 24.588 13.7739 24.9084 14.3498C25.4097 13.6319 25.6748 12.7755 25.6667 11.8998C25.6559 11.3266 25.5258 10.7619 25.2848 10.2416C25.0438 9.72142 24.6971 9.25708 24.2667 8.87818Z" fill="#5A5A5A"/>
</svg>
