<svg width="20" height="20" viewBox="0 0 20 20" fill="none" xmlns="http://www.w3.org/2000/svg">
<g id="Group">
<path id="Vector" d="M10.0002 18.09C14.4681 18.09 18.0901 14.4679 18.0901 9.99994C18.0901 5.53196 14.4681 1.90991 10.0002 1.90991C5.53217 1.90991 1.91016 5.53196 1.91016 9.99994C1.91016 14.4679 5.53217 18.09 10.0002 18.09Z" stroke="#2020C1" stroke-width="1.5" stroke-linecap="round" stroke-linejoin="round"/>
<path id="Vector_2" d="M16.9399 10H19.2499" stroke="#2020C1" stroke-width="1.5" stroke-linecap="round" stroke-linejoin="round"/>
<path id="Vector_3" d="M3.06 10H0.75" stroke="#2020C1" stroke-width="1.5" stroke-linecap="round" stroke-linejoin="round"/>
<path id="Vector_4" d="M10 3.06V0.75" stroke="#2020C1" stroke-width="1.5" stroke-linecap="round" stroke-linejoin="round"/>
<path id="Vector_5" d="M10 16.9399V19.2499" stroke="#2020C1" stroke-width="1.5" stroke-linecap="round" stroke-linejoin="round"/>
<path id="Vector_6" d="M9.99994 12.3099C11.2757 12.3099 12.3099 11.2757 12.3099 9.99994C12.3099 8.72416 11.2757 7.68994 9.99994 7.68994C8.72416 7.68994 7.68994 8.72416 7.68994 9.99994C7.68994 11.2757 8.72416 12.3099 9.99994 12.3099Z" stroke="#2020C1" stroke-width="1.5" stroke-linecap="round" stroke-linejoin="round"/>
</g>
</svg>
