<svg width="80" height="89" viewBox="0 0 80 89" fill="none" xmlns="http://www.w3.org/2000/svg">
<path d="M0 2C0 0.895429 0.895431 0 2 0H65C69.4183 0 73 3.58172 73 8V75C73 79.4183 69.4183 83 65 83H2C0.895432 83 0 82.1046 0 81V2Z" fill="#FFE03E"/>
<path d="M7 8C7 6.89543 7.89543 6 9 6H72C76.4183 6 80 9.58172 80 14V81C80 85.4183 76.4183 89 72 89H9C7.89543 89 7 88.1046 7 87V8Z" fill="white"/>
<path d="M61.1296 47.906H52.2065C50.5031 47.906 49.6403 49.9567 50.8314 51.1744L56.2653 56.7302C57.2315 57.718 58.9157 57.3699 58.9795 55.9896C58.9935 55.6884 58.9865 55.4001 58.962 55.1241C58.8123 53.4414 59.9877 51.3418 61.5716 50.754C61.9192 50.625 62.2106 50.4714 62.4579 50.3002C63.5959 49.5127 62.5135 47.906 61.1296 47.906Z" fill="#2020C1"/>
<path fill-rule="evenodd" clip-rule="evenodd" d="M26.1072 47.9219C24.7279 47.9219 23.7196 49.2316 24.2819 50.4911C26.86 56.2664 32.6532 60.2915 39.3865 60.2915C46.1198 60.2915 51.913 56.2664 54.4911 50.4911C55.0534 49.2316 54.0451 47.9219 52.6658 47.9219H26.1072Z" fill="#2020C1"/>
<ellipse cx="32.1729" cy="52.5481" rx="0.813776" ry="0.832271" fill="white"/>
<path d="M29.3521 44.9494C29.173 45.0877 28.9448 45.0583 28.8065 44.8792L26.2303 41.5426C26.092 41.3634 26.1213 41.1352 26.3005 40.9969L27.3754 40.167C27.5377 40.0417 27.746 40.0684 27.8714 40.2308C27.9967 40.3932 27.97 40.6015 27.8076 40.7268L27.0406 41.319L27.8835 42.4107L28.4321 41.9871C28.5945 41.8618 28.8028 41.8885 28.9282 42.0509C29.0535 42.2133 29.0267 42.4216 28.8644 42.5469L28.3157 42.9705L29.4223 44.4037C29.5606 44.5829 29.5312 44.8111 29.3521 44.9494Z" fill="#2020C1"/>
<path d="M31.4745 43.4808C31.2787 43.5943 31.0564 43.5352 30.9428 43.3394L28.8066 39.6562C28.6931 39.4604 28.7522 39.2381 28.9479 39.1245C29.1437 39.011 29.3661 39.0701 29.4796 39.2659L31.6158 42.9491C31.7294 43.1449 31.6703 43.3672 31.4745 43.4808Z" fill="#2020C1"/>
<path d="M33.3991 42.5656C32.6915 42.8535 32.1672 42.5781 31.8846 41.8837C31.7993 41.674 31.8678 41.4858 32.084 41.3978C32.274 41.3205 32.4647 41.3575 32.5713 41.6196C32.7046 41.9471 32.8967 42.0064 33.126 41.9131C33.3553 41.8198 33.4514 41.6433 33.3128 41.3026C33.1583 40.9226 32.9155 40.7389 32.2759 40.518C31.4573 40.2326 31.1088 39.9391 30.8956 39.415C30.6024 38.6943 30.8052 38.1231 31.5062 37.8379C32.2072 37.5527 32.7383 37.8635 32.9782 38.4531C33.0715 38.6824 32.995 38.851 32.7788 38.939C32.5495 39.0322 32.3768 38.9269 32.2969 38.7303C32.1983 38.4879 32.0086 38.3971 31.7793 38.4904C31.55 38.5837 31.4696 38.7615 31.5976 39.0759C31.7335 39.4101 31.9828 39.5912 32.6224 39.812C33.441 40.0974 33.7803 40.387 34.0122 40.957C34.316 41.7039 34.1066 42.2777 33.3991 42.5656Z" fill="#2020C1"/>
<path d="M35.4555 41.8369C35.2334 41.8808 35.0423 41.7528 34.9984 41.5307L34.1722 37.3538C34.1283 37.1318 34.2563 36.9406 34.4783 36.8967C34.7004 36.8528 34.8915 36.9808 34.9354 37.2028L35.2593 38.8403L36.078 38.6784L35.7542 37.0409C35.7103 36.8189 35.8383 36.6277 36.0603 36.5838C36.2823 36.5399 36.4735 36.6679 36.5174 36.8899L37.3436 41.0669C37.3875 41.2889 37.2595 41.4801 37.0374 41.524C36.8154 41.5679 36.6243 41.4399 36.5803 41.2178L36.2153 39.3722L35.3966 39.5341L35.7616 41.3798C35.8055 41.6018 35.6775 41.793 35.4555 41.8369Z" fill="#2020C1"/>
<path d="M39.7984 41.3676C39.5801 41.3475 39.4649 41.2091 39.4849 40.9908L39.8607 36.8916C39.893 36.5394 40.1102 36.3391 40.4201 36.3676C40.7511 36.3979 40.895 36.61 40.9505 36.9347L41.3629 39.4867L41.377 39.488L41.621 36.8257C41.641 36.6073 41.7794 36.4921 41.9978 36.5122C42.2161 36.5322 42.3313 36.6706 42.3113 36.8889L41.9246 41.1079C41.8936 41.446 41.7142 41.5432 41.4747 41.5212C41.2071 41.4967 41.0855 41.3506 41.0307 41.0188L40.4927 37.745L40.4786 37.7437L40.1752 41.0541C40.1552 41.2724 40.0168 41.3876 39.7984 41.3676Z" fill="#2020C1"/>
<path d="M43.6974 42.0593C42.9656 41.8403 42.6956 41.287 42.9228 40.5281L43.6691 38.0346C43.8963 37.2757 44.4259 36.9617 45.1577 37.1807C45.8894 37.3997 46.1594 37.9531 45.9323 38.712L45.1859 41.2055C44.9588 41.9644 44.4292 42.2783 43.6974 42.0593ZM43.9002 41.3817C44.1374 41.4527 44.325 41.3686 44.4264 41.0298L45.2011 38.4414C45.3025 38.1026 45.192 37.9293 44.9548 37.8583C44.7177 37.7873 44.5301 37.8714 44.4287 38.2102L43.6539 40.7986C43.5525 41.1374 43.6631 41.3107 43.9002 41.3817Z" fill="#2020C1"/>
<path d="M46.367 43.1031C46.147 42.9898 46.086 42.7992 46.1994 42.5792L47.9842 39.1147L47.5378 38.8848C47.3366 38.7811 47.2817 38.6096 47.3853 38.4084C47.489 38.2072 47.6605 38.1524 47.8617 38.256L49.4461 39.0723C49.6473 39.1759 49.7022 39.3474 49.5985 39.5486C49.4949 39.7498 49.3234 39.8047 49.1222 39.701L48.6758 39.4711L46.891 42.9355C46.7776 43.1555 46.5871 43.2165 46.367 43.1031Z" fill="#2020C1"/>
<path d="M48.2243 44.1623C48.0445 44.0249 48.0139 43.7968 48.1513 43.617L50.6843 40.3007C50.8217 40.1209 51.0498 40.0903 51.2296 40.2277L52.3594 41.0907C52.5224 41.2152 52.5503 41.4234 52.4258 41.5864C52.3013 41.7494 52.0931 41.7773 51.9301 41.6528L51.1094 41.0259L50.3152 42.0658L50.9166 42.5252C51.0796 42.6497 51.1075 42.8579 50.983 43.0209C50.8585 43.1839 50.6503 43.2117 50.4873 43.0872L49.8858 42.6278L48.9628 43.8363L49.7834 44.4631C49.9464 44.5876 49.9743 44.7958 49.8498 44.9588C49.7253 45.1218 49.5171 45.1497 49.3541 45.0252L48.2243 44.1623Z" fill="#2020C1"/>
</svg>
