<svg width="14" height="18" viewBox="0 0 14 18" fill="none" xmlns="http://www.w3.org/2000/svg">
<path d="M11.43 2.6C10.8509 2.01353 10.1611 1.54797 9.40064 1.23038C8.64014 0.912792 7.82412 0.749504 6.99997 0.750004C6.17279 0.749068 5.35362 0.91208 4.58982 1.22962C3.82601 1.54716 3.13269 2.01292 2.54996 2.6C1.37005 3.78424 0.708289 5.3883 0.709964 7.06001C0.709964 10.33 3.97997 14.69 5.92997 17L6.07996 17.18C6.2028 17.3021 6.34466 17.4034 6.49997 17.48C6.66109 17.5487 6.83485 17.5828 7.00998 17.58C7.18493 17.5808 7.35827 17.5468 7.51996 17.48C7.67828 17.4041 7.82081 17.2989 7.93998 17.17C7.98998 17.11 13.29 11.28 13.29 7.06001C13.2904 6.23052 13.1262 5.4092 12.8069 4.64362C12.4876 3.87804 12.0196 3.18342 11.43 2.6ZM9.16999 8.6C8.75354 9.17734 8.13012 9.57145 7.42997 9.7H7.04996C6.468 9.69599 5.90176 9.51073 5.42997 9.17C4.8586 8.7514 4.47155 8.12779 4.34998 7.43C4.24312 6.72625 4.41534 6.0086 4.82996 5.43C5.03431 5.13993 5.29426 4.89333 5.59467 4.7045C5.89508 4.51567 6.22997 4.38838 6.57996 4.33001C7.28607 4.23419 8.00201 4.41317 8.57996 4.83001C9.15752 5.24728 9.54595 5.87666 9.65998 6.58001C9.72018 6.93869 9.70782 7.30581 9.62366 7.65965C9.5395 8.01348 9.38524 8.34684 9.16999 8.64V8.6Z" fill="#6C5AD7"/>
</svg>
