<svg width="24" height="24" viewBox="0 0 24 24" fill="none" xmlns="http://www.w3.org/2000/svg">
<path d="M16.43 5.6C15.8509 5.01353 15.1611 4.54797 14.4006 4.23038C13.6401 3.91279 12.8241 3.7495 12 3.75C11.1728 3.74907 10.3536 3.91208 9.58982 4.22962C8.82601 4.54716 8.13269 5.01292 7.54996 5.6C6.37005 6.78424 5.70829 8.3883 5.70996 10.06C5.70996 13.33 8.97997 17.69 10.93 20L11.08 20.18C11.2028 20.3021 11.3447 20.4034 11.5 20.48C11.6611 20.5487 11.8349 20.5828 12.01 20.58C12.1849 20.5808 12.3583 20.5468 12.52 20.48C12.6783 20.4041 12.8208 20.2989 12.94 20.17C12.99 20.11 18.29 14.28 18.29 10.06C18.2904 9.23052 18.1262 8.4092 17.8069 7.64362C17.4876 6.87804 17.0196 6.18342 16.43 5.6ZM14.17 11.6C13.7535 12.1773 13.1301 12.5714 12.43 12.7H12.05C11.468 12.696 10.9018 12.5107 10.43 12.17C9.8586 11.7514 9.47155 11.1278 9.34998 10.43C9.24312 9.72625 9.41534 9.0086 9.82996 8.43C10.0343 8.13993 10.2943 7.89333 10.5947 7.7045C10.8951 7.51567 11.23 7.38838 11.58 7.33001C12.2861 7.23419 13.002 7.41317 13.58 7.83001C14.1575 8.24728 14.546 8.87666 14.66 9.58001C14.7202 9.93869 14.7078 10.3058 14.6237 10.6596C14.5395 11.0135 14.3852 11.3468 14.17 11.64V11.6Z" fill="#6C5AD7"/>
</svg>
