<svg width="1080" height="1080" viewBox="0 0 1080 1080" fill="none" xmlns="http://www.w3.org/2000/svg">
<path d="M936.805 540.975H742.989C705.991 540.975 687.251 585.517 713.121 611.967L831.15 732.642C852.136 754.099 888.719 746.537 890.105 716.556C890.407 710.013 890.256 703.751 889.723 697.756C886.473 661.206 912.003 615.602 946.405 602.835C953.956 600.033 960.286 596.697 965.658 592.979C990.374 575.872 966.864 540.975 936.805 540.975Z" fill="#FFE03E"/>
<path fill-rule="evenodd" clip-rule="evenodd" d="M176.095 541.322C146.134 541.322 124.234 569.769 136.447 597.127C192.446 722.571 318.278 810 464.53 810C610.782 810 736.614 722.571 792.613 597.127C804.826 569.769 782.926 541.322 752.965 541.322H176.095Z" fill="#2020C1"/>
<ellipse cx="307.846" cy="641.807" rx="17.6758" ry="18.0775" fill="white"/>
<path d="M251.266 482.829C247.375 485.833 242.419 485.196 239.414 481.304L183.458 408.83C180.454 404.939 181.091 399.983 184.983 396.979L208.33 378.952C211.856 376.23 216.382 376.812 219.104 380.338C221.827 383.865 221.245 388.39 217.719 391.112L201.059 403.975L219.367 427.687L231.284 418.486C234.81 415.764 239.336 416.346 242.058 419.872C244.781 423.398 244.199 427.924 240.672 430.646L228.756 439.847L252.79 470.977C255.795 474.868 255.157 479.824 251.266 482.829Z" fill="#2020C1"/>
<path d="M296.526 451.493C292.274 453.959 287.444 452.675 284.978 448.423L238.578 368.421C236.112 364.169 237.396 359.339 241.648 356.873C245.901 354.406 250.73 355.69 253.196 359.943L299.596 439.945C302.063 444.197 300.779 449.026 296.526 451.493Z" fill="#2020C1"/>
<path d="M337.371 432.092C322.002 438.344 310.613 432.363 304.476 417.279C302.623 412.726 304.111 408.637 308.807 406.727C312.934 405.048 317.075 405.851 319.391 411.543C322.286 418.658 326.458 419.946 331.439 417.919C336.42 415.893 338.508 412.058 335.498 404.658C332.14 396.405 326.867 392.413 312.974 387.617C295.193 381.417 287.624 375.042 282.992 363.658C276.624 348.005 281.03 335.598 296.256 329.403C311.483 323.209 323.019 329.959 328.23 342.766C330.256 347.747 328.594 351.408 323.898 353.319C318.918 355.345 315.167 353.056 313.43 348.787C311.288 343.522 307.169 341.549 302.188 343.575C297.207 345.602 295.461 349.463 298.24 356.294C301.193 363.551 306.608 367.485 320.501 372.281C338.282 378.482 345.651 384.771 350.688 397.152C357.288 413.374 352.739 425.839 337.371 432.092Z" fill="#2020C1"/>
<path d="M380.632 416.681C375.81 417.635 371.658 414.854 370.704 410.031L352.759 319.305C351.805 314.483 354.586 310.331 359.408 309.377C364.231 308.423 368.383 311.204 369.337 316.026L376.372 351.593L394.155 348.076L387.12 312.509C386.167 307.686 388.947 303.534 393.77 302.58C398.592 301.627 402.744 304.407 403.698 309.23L421.643 399.956C422.597 404.778 419.816 408.93 414.994 409.884C410.171 410.838 406.019 408.057 405.065 403.235L397.136 363.147L379.353 366.664L387.282 406.752C388.236 411.575 385.455 415.727 380.632 416.681Z" fill="#2020C1"/>
<path d="M472.776 406.604C468.033 406.169 465.532 403.163 465.967 398.42L474.128 309.383C474.829 301.733 479.547 297.383 486.279 298C493.469 298.659 496.595 303.266 497.8 310.318L506.758 365.751L507.064 365.779L512.364 307.951C512.799 303.208 515.805 300.707 520.548 301.141C525.29 301.576 527.791 304.582 527.357 309.325L518.957 400.963C518.284 408.307 514.388 410.418 509.187 409.941C503.373 409.408 500.733 406.235 499.542 399.03L487.856 327.919L487.55 327.891L480.959 399.795C480.525 404.537 477.518 407.039 472.776 406.604Z" fill="#2020C1"/>
<path d="M555.964 421.337C540.069 416.579 534.205 404.561 539.139 388.077L555.351 333.916C560.284 317.433 571.787 310.612 587.682 315.37C603.577 320.128 609.441 332.146 604.507 348.63L588.296 402.79C583.362 419.274 571.859 426.094 555.964 421.337ZM560.37 406.619C565.521 408.161 569.596 406.334 571.798 398.975L588.626 342.754C590.829 335.395 588.428 331.629 583.277 330.088C578.126 328.546 574.051 330.373 571.848 337.732L555.02 393.953C552.818 401.312 555.218 405.077 560.37 406.619Z" fill="#2020C1"/>
<path d="M612.637 443.477C607.857 441.015 606.533 436.876 608.996 432.096L647.763 356.847L638.066 351.851C633.696 349.6 632.504 345.875 634.756 341.505C637.007 337.135 640.732 335.943 645.102 338.194L679.517 355.925C683.888 358.176 685.079 361.901 682.828 366.271C680.576 370.641 676.852 371.833 672.482 369.581L662.785 364.586L624.018 439.836C621.556 444.616 617.417 445.94 612.637 443.477Z" fill="#2020C1"/>
<path d="M651.834 465.758C647.927 462.774 647.264 457.821 650.248 453.914L705.267 381.883C708.252 377.976 713.204 377.313 717.111 380.297L741.651 399.041C745.191 401.745 745.797 406.267 743.092 409.808C740.388 413.349 735.866 413.954 732.325 411.25L714.501 397.635L697.249 420.221L710.312 430.199C713.853 432.903 714.458 437.425 711.754 440.966C709.049 444.506 704.527 445.112 700.987 442.408L687.923 432.429L667.874 458.678L685.699 472.293C689.239 474.997 689.845 479.52 687.14 483.06C684.436 486.601 679.914 487.206 676.373 484.502L651.834 465.758Z" fill="#2020C1"/>
</svg>
