<svg width="32" height="32" viewBox="0 0 32 32" fill="none" xmlns="http://www.w3.org/2000/svg">
<path d="M3.66659 28.1199H28.3333C28.6266 28.1199 28.9199 27.9865 29.1066 27.7465C29.2932 27.5199 29.3732 27.2132 29.3199 26.9199L26.5732 13.2932C26.4799 12.8132 26.0666 12.4799 25.5866 12.4799H24.0266C24.6932 11.2932 25.2266 9.99988 25.2266 8.85322C25.2266 6.10655 22.9333 3.87988 20.1066 3.87988C17.2933 3.87988 14.9999 6.10655 14.9999 8.85322C14.9999 9.99988 15.5199 11.2932 16.1999 12.4799H6.41325C5.93325 12.4799 5.51993 12.8132 5.4266 13.2932L2.67992 26.9199C2.62658 27.2132 2.70659 27.5199 2.89325 27.7465C3.07992 27.9865 3.37326 28.1199 3.66659 28.1199ZM26.2266 21.7332L27.1066 26.1199H16.5332L26.2266 21.7332ZM20.1066 7.51988C20.8933 7.51988 21.5332 8.15988 21.5332 8.94655C21.5332 9.73322 20.8933 10.3599 20.1066 10.3599C19.3333 10.3599 18.6933 9.73322 18.6933 8.94655C18.6933 8.15988 19.3333 7.51988 20.1066 7.51988ZM17.3733 14.4799C17.4133 14.4799 17.4532 14.4665 17.4932 14.4532C18.2532 15.4799 18.9333 16.2265 19.1066 16.3999C19.3599 16.6799 19.7333 16.8399 20.1066 16.8399C20.4933 16.8399 20.8666 16.6799 21.1199 16.4132C21.2799 16.2265 21.9599 15.4799 22.7199 14.4532C22.7733 14.4665 22.7999 14.4799 22.8533 14.4799H24.7732L25.8266 19.7199L18.1866 23.1732C18.1733 23.1332 18.1733 23.1065 18.1466 23.0799L11.2399 14.4799H17.3733ZM7.22659 14.4799H8.66659L16.3333 24.0132L11.6799 26.1199H4.89325L7.22659 14.4799Z" fill="#999999"/>
</svg>
