<svg width="24" height="24" viewBox="0 0 24 24" fill="none" xmlns="http://www.w3.org/2000/svg">
<path d="M17.3311 16.5733L17.3258 15.5707L17.3066 13.2758C18.0823 13.0964 18.6507 12.4145 18.6533 11.5884C18.6509 11.1223 18.465 10.6836 18.1314 10.35C17.8971 10.1157 17.6068 9.9518 17.2957 9.87955L17.2765 7.5847L17.2712 6.58204C17.2691 6.17251 16.9425 5.83186 16.5188 5.82962C16.1093 5.82746 15.7721 6.16459 15.7743 6.57413L15.7761 6.91306L8.50105 7.78546L6.22742 7.77344C4.89293 7.77345 3.8113 8.85508 3.81129 10.1896L3.82516 12.8163C3.82874 13.4941 4.1073 14.0957 4.55449 14.5429C4.99458 14.983 5.59621 15.2616 6.27407 15.2652L7.83451 15.2663L7.84764 17.7518C7.84876 17.9636 7.93446 18.1477 8.06933 18.2825C8.20419 18.4174 8.39533 18.5102 8.60006 18.5042C9.00959 18.5064 9.34673 18.1692 9.34456 17.7597L9.33905 15.3802L15.8324 16.2265L15.8342 16.5654C15.8282 16.7702 15.9139 16.9542 16.0558 17.0962C16.1907 17.231 16.3747 17.3167 16.5866 17.3179C16.9961 17.32 17.3332 16.9829 17.3311 16.5733ZM6.26615 13.7682C5.75067 13.7585 5.33187 13.3397 5.32918 12.8313L5.30821 10.1975C5.31255 9.68207 5.72693 9.26769 6.23532 9.27037L7.80286 9.27865L7.8266 13.7694L6.26615 13.7682Z" fill="white"/>
</svg>
