<svg width="28" height="28" viewBox="0 0 28 28" fill="none" xmlns="http://www.w3.org/2000/svg">
<path d="M6.99334 8.97152L2.79167 13.1732C2.44167 13.5115 2.44167 14.0715 2.79167 14.4099C2.95501 14.5849 3.18834 14.6665 3.41001 14.6665C3.63167 14.6665 3.85334 14.5849 4.02834 14.4099L8.23001 10.2082C8.56834 9.86986 8.56834 9.30986 8.23001 8.97152C7.88001 8.63319 7.33167 8.63319 6.99334 8.97152Z" fill="#9280E4"/>
<path d="M12.9933 8.97152L10.7917 11.1732C10.4417 11.5115 10.4417 12.0715 10.7917 12.4099C10.955 12.5849 11.1883 12.6665 11.41 12.6665C11.6317 12.6665 11.8533 12.5849 12.0283 12.4099L14.23 10.2082C14.5683 9.86986 14.5683 9.30986 14.23 8.97152C13.88 8.63319 13.3317 8.63319 12.9933 8.97152Z" fill="#9280E4"/>
<path d="M18.9933 8.97152L14.7917 13.1732C14.4417 13.5115 14.4417 14.0715 14.7917 14.4099C14.955 14.5849 15.1883 14.6665 15.41 14.6665C15.6317 14.6665 15.8533 14.5849 16.0283 14.4099L20.23 10.2082C20.5683 9.86986 20.5683 9.30986 20.23 8.97152C19.88 8.63319 19.3317 8.63319 18.9933 8.97152Z" fill="#9280E4"/>
<path d="M24.9933 8.97152L22.7917 11.1732C22.4417 11.5115 22.4417 12.0715 22.7917 12.4099C22.955 12.5849 23.1883 12.6665 23.41 12.6665C23.6317 12.6665 23.8533 12.5849 24.0283 12.4099L26.23 10.2082C26.5683 9.86986 26.5683 9.30986 26.23 8.97152C25.88 8.63319 25.3317 8.63319 24.9933 8.97152Z" fill="#9280E4"/>
<path d="M11.9933 15.9715L9.79167 18.1732C9.44167 18.5115 9.44167 19.0715 9.79167 19.4099C9.95501 19.5849 10.1883 19.6665 10.41 19.6665C10.6317 19.6665 10.8533 19.5849 11.0283 19.4099L13.23 17.2082C13.5683 16.8699 13.5683 16.3099 13.23 15.9715C12.88 15.6332 12.3317 15.6332 11.9933 15.9715Z" fill="#9280E4"/>
<path d="M7.99334 13.9715L3.79167 18.1732C3.44167 18.5115 3.44167 19.0715 3.79167 19.4099C3.95501 19.5849 4.18834 19.6665 4.41001 19.6665C4.63167 19.6665 4.85334 19.5849 5.02834 19.4099L9.23001 15.2082C9.56834 14.8699 9.56834 14.3099 9.23001 13.9715C8.88001 13.6332 8.33167 13.6332 7.99334 13.9715Z" fill="#9280E4"/>
<path d="M23.9933 15.9715L21.7917 18.1732C21.4417 18.5115 21.4417 19.0715 21.7917 19.4099C21.955 19.5849 22.1883 19.6665 22.41 19.6665C22.6317 19.6665 22.8533 19.5849 23.0283 19.4099L25.23 17.2082C25.5683 16.8699 25.5683 16.3099 25.23 15.9715C24.88 15.6332 24.3317 15.6332 23.9933 15.9715Z" fill="#9280E4"/>
<path d="M19.9933 13.9715L15.7917 18.1732C15.4417 18.5115 15.4417 19.0715 15.7917 19.4099C15.955 19.5849 16.1883 19.6665 16.41 19.6665C16.6317 19.6665 16.8533 19.5849 17.0283 19.4099L21.23 15.2082C21.5683 14.8699 21.5683 14.3099 21.23 13.9715C20.88 13.6332 20.3317 13.6332 19.9933 13.9715Z" fill="#9280E4"/>
</svg>
