<svg width="28" height="28" viewBox="0 0 28 28" fill="none" xmlns="http://www.w3.org/2000/svg">
<path d="M4.66658 13.0005H3.33325C2.78658 13.0005 2.33325 13.4538 2.33325 14.0005C2.33325 14.5472 2.78658 15.0005 3.33325 15.0005H4.66658C5.21324 15.0005 5.66658 14.5472 5.66658 14.0005C5.66658 13.4538 5.21324 13.0005 4.66658 13.0005Z" fill="#FF5D5D"/>
<path d="M6.69339 19.8935L5.74673 20.8402C5.36006 21.2268 5.36006 21.8668 5.74673 22.2535C5.94672 22.4402 6.20006 22.5468 6.45339 22.5468C6.72006 22.5468 6.97339 22.4402 7.16005 22.2535L8.10672 21.3068C8.49338 20.9202 8.49338 20.2802 8.10672 19.8935C7.72005 19.5068 7.08005 19.5068 6.69339 19.8935Z" fill="#FF5D5D"/>
<path d="M7.16005 5.74703C6.77339 5.36036 6.14672 5.36036 5.74673 5.74703C5.36006 6.14703 5.36006 6.7737 5.74673 7.16036L6.69339 8.10703C6.89339 8.30703 7.14672 8.40036 7.40005 8.40036C7.65339 8.40036 7.90672 8.30703 8.10672 8.10703C8.49338 7.72036 8.49338 7.08036 8.10672 6.6937L7.16005 5.74703Z" fill="#FF5D5D"/>
<path d="M13.9999 5.66683C14.5465 5.66683 14.9999 5.2135 14.9999 4.66683V3.3335C14.9999 2.78683 14.5465 2.3335 13.9999 2.3335C13.4532 2.3335 12.9999 2.78683 12.9999 3.3335V4.66683C12.9999 5.2135 13.4532 5.66683 13.9999 5.66683Z" fill="#FF5D5D"/>
<path d="M13.9999 22.333C13.4532 22.333 12.9999 22.7863 12.9999 23.333V24.6663C12.9999 25.213 13.4532 25.6663 13.9999 25.6663C14.5465 25.6663 14.9999 25.213 14.9999 24.6663V23.333C14.9999 22.7863 14.5465 22.333 13.9999 22.333Z" fill="#FF5D5D"/>
<path d="M13.9999 19.0005C16.7613 19.0005 18.9999 16.7619 18.9999 14.0005C18.9999 11.2391 16.7613 9.00049 13.9999 9.00049C11.2384 9.00049 8.99988 11.2391 8.99988 14.0005C8.99988 16.7619 11.2384 19.0005 13.9999 19.0005Z" fill="#FF5D5D"/>
<path d="M21.3066 19.8935C20.9199 19.5068 20.2799 19.5068 19.8933 19.8935C19.5066 20.2802 19.5066 20.9202 19.8933 21.3068L20.8399 22.2535C21.0266 22.4402 21.2799 22.5468 21.5466 22.5468C21.7999 22.5468 22.0533 22.4402 22.2533 22.2535C22.6399 21.8668 22.6399 21.2268 22.2533 20.8402L21.3066 19.8935Z" fill="#FF5D5D"/>
<path d="M20.5999 8.40036C20.8533 8.40036 21.1066 8.30703 21.3066 8.10703L22.2533 7.16036C22.6399 6.7737 22.6399 6.14703 22.2533 5.74703C21.8533 5.36036 21.2266 5.36036 20.8399 5.74703L19.8933 6.6937C19.5066 7.08036 19.5066 7.72036 19.8933 8.10703C20.0933 8.30703 20.3466 8.40036 20.5999 8.40036Z" fill="#FF5D5D"/>
<path d="M24.6666 13.0005H23.3332C22.7866 13.0005 22.3333 13.4538 22.3333 14.0005C22.3333 14.5472 22.7866 15.0005 23.3332 15.0005H24.6666C25.2132 15.0005 25.6666 14.5472 25.6666 14.0005C25.6666 13.4538 25.2132 13.0005 24.6666 13.0005Z" fill="#FF5D5D"/>
</svg>
