<svg width="20" height="21" viewBox="0 0 20 21" fill="none" xmlns="http://www.w3.org/2000/svg">
<g id="Bin">
<path id="Vector" d="M16.8415 4.73369H13.1915V2.78369C13.1915 2.44202 12.9165 2.15869 12.5665 2.15869H7.43321C7.09154 2.15869 6.80821 2.44202 6.80821 2.78369V4.73369H3.1582C2.81654 4.73369 2.5332 5.00869 2.5332 5.35869C2.5332 5.70036 2.81654 5.98369 3.1582 5.98369H4.11654V16.492C4.11654 17.7837 5.16654 18.8254 6.45821 18.8254H13.2582C14.5415 18.8254 15.5915 17.7837 15.5915 16.492V5.98369H16.8415C17.1832 5.98369 17.4665 5.70036 17.4665 5.35869C17.4665 5.00869 17.1832 4.73369 16.8415 4.73369ZM7.65821 14.7837V8.62535C7.65821 8.28369 7.94154 8.00035 8.28321 8.00035C8.63321 8.00035 8.90821 8.28369 8.90821 8.62535V14.7837C8.90821 15.1254 8.63321 15.4087 8.28321 15.4087C7.94154 15.4087 7.65821 15.1254 7.65821 14.7837ZM12.3415 14.7837C12.3415 15.1254 12.0582 15.4087 11.7165 15.4087C11.3665 15.4087 11.0915 15.1254 11.0915 14.7837V8.62535C11.0915 8.27535 11.3665 8.00035 11.7165 8.00035C12.0582 8.00035 12.3415 8.27535 12.3415 8.62535V14.7837ZM8.05821 3.40869H11.9415V4.73369H8.05821V3.40869Z" fill="#FF9C9C"/>
</g>
</svg>
